Coordinates
version=1
nRows=9
nColumns=32
inDegrees=yes

Units are S.I. units (second, meters, Newtons, ...)
If the header above contains a line with 'inDegrees', this indicates whether rotational values are in degrees (yes) or radians (no).

endheader
time	pelvis_tilt	pelvis_list	pelvis_rotation	pelvis_tx	pelvis_ty	pelvis_tz	hip_flexion_r	hip_adduction_r	hip_rotation_r	knee_angle_r	ankle_angle_r	subtalar_angle_r	mtp_angle_r	hip_flexion_l	hip_adduction_l	hip_rotation_l	knee_angle_l	ankle_angle_l	subtalar_angle_l	mtp_angle_l	lumbar_extension	lumbar_bending	lumbar_rotation	arm_flex_r	arm_add_r	arm_rot_r	elbow_flex_r	arm_flex_l	arm_add_l	arm_rot_l	elbow_flex_l
      0.80000000	     -6.58052001	     -9.10969641	    -11.52932153	     -1.98135083	      0.86628633	     -0.24183170	      8.73533033	      7.82517368	     -4.64248003	    -25.97657506	     12.55057231	      2.72832563	      0.00000000	     50.00202678	    -15.86207493	     -6.24721609	    -47.42205292	      6.53857128	    -22.39471426	      0.00000000	    -12.13613835	     11.28521886	     16.06087281	      0.00000000	      0.00000000	      0.00000000	      0.00000000	      0.00000000	      0.00000000	      0.00000000	      0.00000000
      0.81000000	     -7.27527886	     -8.49774481	    -11.66183884	     -1.97146466	      0.86438979	     -0.24152467	      9.29624594	      7.06464075	     -5.01859728	    -26.88144503	     15.02660162	      5.53677873	      0.00000000	     50.00202678	    -15.12892691	     -5.94213892	    -42.22781333	      1.77394847	    -28.08543223	      0.00000000	    -11.09009398	     10.36870865	     15.73181917	      0.00000000	      0.00000000	      0.00000000	      0.00000000	      0.00000000	      0.00000000	      0.00000000	      0.00000000
      0.82000000	     -7.81447387	     -8.69670805	    -11.87592469	     -1.96076851	      0.86234977	     -0.24034304	      9.19226596	      7.39782486	     -4.63844881	    -27.13013934	     14.99541004	      5.42671209	      0.00000000	     50.00202678	    -15.22324879	     -4.92164615	    -38.10927470	      1.33281362	    -27.75437980	      0.00000000	    -10.32472705	     10.25843263	     15.62189158	      0.00000000	      0.00000000	      0.00000000	      0.00000000	      0.00000000	      0.00000000	      0.00000000	      0.00000000
      0.83000000	     -8.44710391	     -9.16283364	    -12.05421089	     -1.94894322	      0.86029412	     -0.23944468	      8.95977787	      7.84291958	     -4.81661936	    -27.30986995	     15.01089170	      5.49483123	      0.00000000	     50.00202678	    -15.72277341	     -4.26013684	    -34.43834765	      0.88910110	    -27.40223888	      0.00000000	     -9.29707605	     10.54753456	     15.52977547	      0.00000000	      0.00000000	      0.00000000	      0.00000000	      0.00000000	      0.00000000	      0.00000000	      0.00000000
      0.84000000	     -9.08245755	     -8.95559348	    -12.40448896	     -1.93772330	      0.85725546	     -0.23827986	      9.39066553	      7.65043499	     -4.66295225	    -28.34077607	     15.09280613	      5.21088229	      0.00000000	     50.00202678	    -15.73775371	     -3.86950643	    -31.39595668	     -1.32685465	    -26.50966277	      0.00000000	     -8.25827603	      9.81412422	     15.10234567	      0.00000000	      0.00000000	      0.00000000	      0.00000000	      0.00000000	      0.00000000	      0.00000000	      0.00000000
      0.85000000	     -9.57813307	     -9.24938266	    -12.77052247	     -1.92593954	      0.85393001	     -0.23667268	      9.39003359	      8.13559025	     -3.91256774	    -29.04894688	     15.13641514	      5.24216999	      0.00000000	     50.00202678	    -16.15210109	     -2.67665716	    -29.35396224	     -1.64076628	    -26.43653430	      0.00000000	     -7.27608797	      9.82343472	     15.32966033	      0.00000000	      0.00000000	      0.00000000	      0.00000000	      0.00000000	      0.00000000	      0.00000000	      0.00000000
      0.86000000	    -10.28929721	     -9.72688773	    -12.96957831	     -1.91217150	      0.85086938	     -0.23596571	      9.10787109	      8.58676284	     -3.98558037	    -29.21518854	     15.18507954	      5.40104548	      0.00000000	     50.00202678	    -16.83203241	     -2.29412379	    -27.49661221	     -2.51455505	    -26.61211206	      0.00000000	     -5.77277325	     10.16895767	     15.02282522	      0.00000000	      0.00000000	      0.00000000	      0.00000000	      0.00000000	      0.00000000	      0.00000000	      0.00000000
      0.87000000	    -10.57013891	    -10.03775775	    -13.64432849	     -1.90084640	      0.84745074	     -0.23402207	      9.27057827	      9.05913780	     -3.09874918	    -30.67160018	     14.91700425	      4.73281451	      0.00000000	     49.89589543	    -17.69751322	     -2.43941437	    -26.84446982	     -5.00845897	    -27.68978858	      0.00000000	     -5.16680232	      9.97322150	     15.11725874	      0.00000000	      0.00000000	      0.00000000	      0.00000000	      0.00000000	      0.00000000	      0.00000000	      0.00000000
      0.88000000	    -10.71294499	    -10.48959860	    -13.70153273	     -1.88696839	      0.84450809	     -0.23343944	      8.59038731	      9.25758837	     -3.40190702	    -31.25836212	     14.92229422	      4.72502108	      0.00000000	     49.26115497	    -18.17253507	     -2.39257753	    -25.98376231	     -4.90969105	    -27.77552807	      0.00000000	     -4.26677345	     10.05219138	     14.90985458	      0.00000000	      0.00000000	      0.00000000	      0.00000000	      0.00000000	      0.00000000	      0.00000000	      0.00000000
